<svg width="197" height="72" viewBox="0 0 197 72" fill="none" xmlns="http://www.w3.org/2000/svg">
<path d="M33.0674 12C33.9785 12.0177 34.8883 12.2319 35.7285 12.6387L51.7266 20.8623C53.1836 21.4691 54.1318 22.8918 54.1318 24.4678V36.0732C54.1318 41.5444 51.9108 47.0497 48.1846 50.4814C48.1846 50.4814 38.3566 59.9992 33.0664 60C27.7869 60 17.9862 50.5191 17.9473 50.4814C14.2209 47.0497 12 41.5463 12 36.0732V24.4678C12 22.8917 12.9481 21.4709 14.4053 20.8623L30.4062 12.6387C31.2464 12.2319 32.1546 12.0177 33.0674 12ZM30.5059 41.9219C30.2242 41.922 29.9953 42.1514 29.9951 42.4307V47.54C29.9953 47.8211 30.2242 48.0487 30.5059 48.0488H35.626C35.9076 48.0486 36.1365 47.8193 36.1367 47.54V42.4307C36.1365 42.1497 35.9076 41.9221 35.626 41.9219H30.5059ZM119.926 27.6094C121.892 27.6094 123.783 28.3807 125.012 29.9443C125.841 31.0021 126.795 33.2236 126.209 34.5557C126.09 34.8245 125.931 35.0074 125.624 35.0234C125.195 35.0464 124.757 35.0176 124.326 35.0176H115.871C115.85 35.3112 115.851 35.283 115.851 35.626C115.851 40.1208 117.68 42.7002 120.864 42.7002C122.398 42.7 124.007 41.7974 125.067 40.3506L125.148 40.2363L126.296 41.0938L126.239 41.1982C124.88 43.7703 122.576 45.2461 119.926 45.2461C115.359 45.246 112.292 41.6494 112.292 36.2949C112.292 31.2624 115.29 27.6095 119.926 27.6094ZM147.542 24.5625V28.624C148.09 28.624 148.887 28.6059 149.674 28.5918C150.503 28.5741 151.502 28.5605 151.995 28.5605H152.133V30.3379H151.995C151.649 30.3379 150.802 30.3113 150.025 30.2812C149.162 30.2476 148.193 30.2104 147.542 30.2051V38.7275C147.542 42.1394 148.398 42.826 149.778 42.8262C150.691 42.8262 151.397 42.2956 151.53 42.1895L151.532 42.1934L151.652 42.0977L152.47 43.3184L152.39 43.3984C151.321 44.4967 149.848 45.1777 148.543 45.1777C146.94 45.1777 144.255 44.4432 144.255 39.5293V30.3057H142.292V28.9248L142.353 28.8838C145.945 27.5425 146.33 24.2573 146.332 24.2422L147.542 24.5625ZM134.185 27.5371C136.324 27.5371 138.583 28.1543 139.444 28.7256L139.516 28.7715L139.507 28.8545L139.096 33.2207H137.815L137.794 33.1094C137.321 30.6859 135.835 29.1807 133.915 29.1807C132.717 29.1808 131.88 29.906 131.88 30.9443C131.88 32.2248 133.515 33.141 135.411 34.2021V34.2061C137.817 35.5558 140.547 37.0841 140.547 39.8613C140.547 43.2382 138.228 45.1748 134.187 45.1748C132.121 45.1748 129.538 44.5511 128.547 43.8135L128.492 43.7705V38.8545H129.777L129.804 38.957C130.781 42.7319 132.961 43.5263 134.617 43.5264C136.367 43.5264 137.59 42.4983 137.59 41.0283C137.589 39.3287 135.686 38.2812 133.673 37.1758C131.322 35.8827 128.892 34.6004 128.892 31.9824C128.892 29.3645 131.068 27.5372 134.185 27.5371ZM175.261 27.5371C179.989 27.5371 182.927 30.8062 182.927 36.2881C182.927 41.7699 180.104 45.1746 175.293 45.1748C170.482 45.1748 167.492 42.0654 167.492 36.5234C167.492 30.9814 170.467 27.5391 175.259 27.5391L175.261 27.5371ZM96.9629 32.082C96.963 27.6633 105.272 26.0341 107.917 28.7529C108.693 29.5507 109.052 30.7824 109.002 32.5195C108.963 33.8831 107.994 42.7275 109.8 42.7275C110.005 42.7275 110.165 42.6357 110.438 42.3672V42.3652L110.55 42.252L111.27 43.4248L111.214 43.5059C110.588 44.4592 109.771 45.0039 108.665 45.0039C107.325 45.0039 106.311 44.3357 105.875 42.9014C104.354 44.4102 102.469 45.1737 100.613 45.1738C97.9736 45.1738 96.5928 43.3572 96.5928 41.5635C96.5929 38.0735 99.3865 36.2995 105.499 34.7588L105.536 32.9795C105.586 31.2336 105.373 30.1793 104.869 29.6592C104.46 29.2399 103.715 29.1807 103.267 29.1807C102.008 29.1808 101.044 29.9033 100.613 31.4492C100.175 33.1118 99.5244 33.8213 98.4395 33.8213C97.5974 33.8212 96.9629 33.0744 96.9629 32.082ZM73.5635 28.2822V29.6982C75.0862 28.2513 76.9778 27.5411 78.3535 27.541C80.4383 27.541 81.8609 28.4333 82.5859 30.1934C84.1176 28.4952 86.3067 27.541 87.833 27.541C91.1233 27.541 92.7226 29.6058 92.7227 33.8564V42.001L92.7188 41.999C92.7188 42.795 93.5165 43.3414 94.9062 43.4971L95.0283 43.5117V44.8438H87.2217V43.5146L87.3418 43.499C88.6872 43.3115 89.4315 42.7792 89.4316 42.001V34.9902C89.4316 30.2426 88.2051 29.8555 86.7266 29.8555C85.7463 29.8556 83.7507 30.7466 83.1123 32.1455C83.1442 32.6921 83.1738 33.2745 83.1738 33.8564V42.001C83.174 42.7968 83.9718 43.3433 85.3613 43.499L85.4844 43.5127V44.8447H77.6787V43.5166L77.7988 43.501C79.1441 43.3135 79.8855 42.781 79.8857 42.0029V34.9922C79.8857 30.2449 78.659 29.8575 77.1807 29.8574C76.0815 29.8574 74.2549 30.7432 73.6309 32.0186V42.0029C73.6311 42.7987 74.4258 43.3453 75.8154 43.501L75.9375 43.5146V44.8447H68.1318V43.5166L68.252 43.501C69.5973 43.3135 70.3386 42.781 70.3389 42.0029V32.3545C70.3388 30.7874 70.1346 30.3896 68.2715 30.3896H68.1338V29.2568L72.5801 27.4531L73.5635 28.2822ZM160.026 28.2793V30.4688C161.997 28.4454 163.509 27.5392 164.904 27.5391L164.903 27.541C166.39 27.5412 167.349 28.3284 167.35 29.5469C167.35 30.5799 166.552 31.4218 165.571 31.4219C165.034 31.4219 164.692 31.2453 164.332 31.0596C163.915 30.8438 163.483 30.6211 162.662 30.6211C161.76 30.6211 160.857 31.5971 160.09 32.5664V40.5645C160.09 42.5083 160.955 43.329 163.175 43.4971L163.302 43.5059V44.8418H154.593V43.5127L154.713 43.4971C155.982 43.3202 156.803 42.6652 156.803 41.832V32.3506C156.803 30.7836 156.599 30.3858 154.732 30.3857H154.594V29.2539L159.04 27.4492L160.026 28.2793ZM175.057 29.1836C172.323 29.1837 171.049 31.3691 171.049 36.0566C171.049 39.4653 171.831 43.5283 175.561 43.5283H175.562C178.09 43.5281 179.37 41.2283 179.37 36.6895C179.37 31.6392 177.959 29.1836 175.057 29.1836ZM105.465 36.4863C101.659 37.6449 100.081 38.8005 100.081 40.6611C100.081 41.9962 100.806 42.7914 102.018 42.792C103.207 42.7918 104.596 42.1455 105.53 41.0156C105.498 40.5415 105.469 39.9856 105.469 39.3594L105.465 36.4863ZM36.5508 35.9023C36.2692 35.9026 36.0411 36.1319 36.041 36.4111V41.5205C36.0413 41.8014 36.2693 42.029 36.5508 42.0293H41.6709C41.9525 42.0292 42.1814 41.7997 42.1816 41.5205V36.4111C42.1815 36.13 41.9526 35.9025 41.6709 35.9023H36.5508ZM24.4736 35.9004C24.1919 35.9004 23.9631 36.1299 23.9629 36.4092V41.5186C23.963 41.7997 24.1919 42.0273 24.4736 42.0273H29.5928C29.8744 42.0272 30.1034 41.7978 30.1035 41.5186V36.4092C30.1033 36.1282 29.8744 35.9005 29.5928 35.9004H24.4736ZM30.5059 29.8926C30.2241 29.8927 29.9951 30.1229 29.9951 30.4023V35.5107C29.9951 35.792 30.2241 36.0204 30.5059 36.0205H35.626C35.9077 36.0203 36.1367 35.7901 36.1367 35.5107V30.4023C36.1367 30.1212 35.9077 29.8928 35.626 29.8926H30.5059ZM42.5469 29.8926C42.265 29.8926 42.0361 30.1229 42.0361 30.4023V35.5107C42.0361 35.792 42.265 36.0205 42.5469 36.0205H47.667C47.9486 36.0202 48.1777 35.7901 48.1777 35.5107V30.4023C48.1777 30.1213 47.9486 29.8929 47.667 29.8926H42.5469ZM18.4775 29.8906C18.1957 29.8906 17.9669 30.121 17.9668 30.4004V35.5088C17.9668 35.79 18.1957 36.0185 18.4775 36.0186H23.5977C23.8793 36.0183 24.1084 35.7881 24.1084 35.5088V30.4004C24.1083 30.1193 23.8793 29.8909 23.5977 29.8906H18.4775ZM119.658 29.2549C117.668 29.2549 116.516 30.7739 116.044 33.2695H122.922C122.748 30.7385 121.738 29.2549 119.658 29.2549ZM24.4746 23.8887C24.1929 23.8889 23.9649 24.1191 23.9648 24.3984V29.5068C23.9648 29.788 24.1929 30.0164 24.4746 30.0166H29.5947C29.8765 30.0165 30.1055 29.7863 30.1055 29.5068V24.3984C30.1054 24.1173 29.8765 23.8888 29.5947 23.8887H24.4746ZM36.5527 23.8887C36.271 23.8888 36.042 24.1191 36.042 24.3984V29.5068C36.042 29.788 36.271 30.0164 36.5527 30.0166H41.6729C41.9546 30.0165 42.1836 29.7863 42.1836 29.5068V24.3984C42.1836 24.1173 41.9546 23.8888 41.6729 23.8887H36.5527Z" fill="#ECEBE4"></path>
</svg>