<svg viewBox="0 0 40 40" fill="none" xmlns="http://www.w3.org/2000/svg">
<path d="M22.5821 15.8002H17.3818L17.3813 21.0005H22.5815L22.5821 15.8002Z" fill="current"></path>
<path d="M27.7828 21.0005H22.5825L22.582 26.2007H27.7822L27.7828 21.0005Z" fill="current"></path>
<path d="M22.5821 26.2007H17.3818L17.3813 31.4009H22.5815L22.5821 26.2007Z" fill="current"></path>
<path d="M17.3814 10.6189H12.1812L12.1806 15.8191H17.3808L17.3814 10.6189Z" fill="current"></path>
<path d="M32.9829 15.8002H27.7827L27.7822 21.0005H32.9824L32.9829 15.8002Z" fill="current"></path>
<path d="M27.7828 10.6H22.5825L22.582 15.8002H27.7822L27.7828 10.6Z" fill="current"></path>
<path d="M17.3814 21.0005H12.1812L12.1806 26.2007H17.3808L17.3814 21.0005Z" fill="current"></path>
<path d="M12.2007 15.8002H7.00049L6.99994 21.0005H12.2002L12.2007 15.8002Z" fill="current"></path>
</svg>