<svg width="72" height="72" viewBox="0 0 72 72" fill="none" xmlns="http://www.w3.org/2000/svg">
<path d="M36.0024 12C36.9114 12.0178 37.8185 12.232 38.6567 12.6387L54.6196 20.8623C56.0737 21.469 57.02 22.8917 57.02 24.4678V36.0732C57.02 41.5463 54.8038 47.0497 51.0854 50.4814C51.0447 50.521 41.268 59.9996 36.0005 60C30.722 60 20.9146 50.4814 20.9146 50.4814C17.1963 47.0497 14.98 41.5463 14.98 36.0732V24.4678C14.98 22.8917 15.9263 21.4708 17.3804 20.8623L33.3472 12.6387C34.1856 12.2319 35.0915 12.0177 36.0024 12ZM33.4458 42.0332C33.3633 42.0332 33.2867 42.0585 33.2231 42.1016C33.1176 42.1732 33.0475 42.2939 33.0474 42.4307V47.54C33.0474 47.5952 33.0593 47.6476 33.0796 47.6953C33.0897 47.7189 33.1015 47.7417 33.1157 47.7627C33.1443 47.805 33.1809 47.8415 33.2231 47.8701C33.2442 47.8843 33.2669 47.8962 33.2905 47.9062C33.3383 47.9265 33.3907 47.9375 33.4458 47.9375H38.5542C38.6914 47.9375 38.8127 47.8684 38.8843 47.7627C38.9274 47.6991 38.9526 47.6224 38.9526 47.54V42.4316C38.9526 42.2946 38.8826 42.1732 38.7769 42.1016C38.7133 42.0586 38.6366 42.0332 38.5542 42.0332H33.4458ZM27.4263 36.0137C27.207 36.0137 27.0279 36.1919 27.0278 36.4111V41.5195C27.0278 41.602 27.053 41.6795 27.0962 41.7432C27.1677 41.8489 27.289 41.9179 27.4263 41.918H32.5347C32.727 41.918 32.8882 41.782 32.9253 41.6006C32.9306 41.5748 32.9331 41.5479 32.9331 41.5205V36.4121C32.9331 36.2201 32.796 36.0586 32.6147 36.0215L32.5347 36.0137H27.4263ZM39.478 36.0137C39.2587 36.0137 39.0797 36.1919 39.0796 36.4111V41.5195C39.0796 41.7389 39.2587 41.918 39.478 41.918H44.5884C44.8081 41.9179 44.9858 41.7402 44.9858 41.5205V36.4121C44.9858 36.1923 44.8081 36.0137 44.5884 36.0137H39.478ZM21.4438 30.0039C21.389 30.0039 21.3362 30.0149 21.2886 30.0352C21.1934 30.0754 21.1169 30.1519 21.0767 30.2471C21.0564 30.2947 21.0454 30.3474 21.0454 30.4023V35.5107C21.0454 35.6204 21.0905 35.7199 21.1626 35.792C21.1986 35.828 21.241 35.8578 21.2886 35.8779C21.3362 35.8981 21.389 35.9092 21.4438 35.9092H26.5522C26.5797 35.9092 26.6065 35.9057 26.6323 35.9004C26.71 35.8844 26.7794 35.8461 26.8335 35.792C26.8695 35.756 26.8993 35.7136 26.9194 35.666C26.9396 35.6184 26.9507 35.5656 26.9507 35.5107V30.4023C26.9507 30.3474 26.9397 30.2947 26.9194 30.2471C26.8792 30.1519 26.8027 30.0755 26.7075 30.0352C26.6599 30.0149 26.6072 30.0039 26.5522 30.0039H21.4438ZM33.4458 30.0039C33.3908 30.0039 33.3382 30.015 33.2905 30.0352C33.1479 30.0958 33.0474 30.238 33.0474 30.4023V35.5107C33.0474 35.593 33.0727 35.6699 33.1157 35.7334C33.1443 35.7757 33.1809 35.8122 33.2231 35.8408C33.2443 35.8551 33.2668 35.8678 33.2905 35.8779C33.3382 35.8981 33.3908 35.9092 33.4458 35.9092H38.5542C38.5819 35.9092 38.6092 35.9058 38.6353 35.9004C38.6868 35.8898 38.7347 35.8693 38.7769 35.8408C38.8827 35.7692 38.9526 35.6478 38.9526 35.5107V30.4023C38.9526 30.3474 38.9416 30.2947 38.9214 30.2471C38.8711 30.1282 38.7646 30.0383 38.6353 30.0117C38.6092 30.0063 38.5818 30.0039 38.5542 30.0039H33.4458ZM45.4624 30.0039C45.4075 30.0039 45.3548 30.0149 45.3071 30.0352C45.2119 30.0754 45.1355 30.1519 45.0952 30.2471C45.075 30.2947 45.064 30.3474 45.064 30.4023V35.5107C45.064 35.6204 45.1091 35.7199 45.1812 35.792C45.2172 35.828 45.2595 35.8578 45.3071 35.8779C45.3548 35.8982 45.4075 35.9092 45.4624 35.9092H50.5708C50.5982 35.9092 50.625 35.9057 50.6509 35.9004C50.7285 35.8844 50.798 35.8461 50.8521 35.792C50.888 35.756 50.9178 35.7136 50.938 35.666C50.9582 35.6184 50.9692 35.5656 50.9692 35.5107V30.4023C50.9692 30.3474 50.9582 30.2947 50.938 30.2471C50.8977 30.1519 50.8213 30.0755 50.7261 30.0352C50.6784 30.0149 50.6257 30.0039 50.5708 30.0039H45.4624ZM27.3462 24.0078C27.3202 24.0131 27.2949 24.0211 27.271 24.0312C27.2005 24.0612 27.1409 24.1113 27.0981 24.1738C27.0542 24.2378 27.0278 24.3151 27.0278 24.3984V29.5068C27.0278 29.7262 27.2069 29.9053 27.4263 29.9053H32.5347C32.6992 29.9053 32.8413 29.8049 32.9019 29.6621C32.9221 29.6144 32.9331 29.5619 32.9331 29.5068V24.3984C32.9331 24.2336 32.8328 24.0917 32.6899 24.0312C32.6423 24.011 32.5895 24 32.5347 24H27.4263C27.3989 24 27.372 24.0025 27.3462 24.0078ZM39.4634 24.001C39.4137 24.003 39.3661 24.0127 39.3228 24.0312C39.1801 24.0918 39.0796 24.234 39.0796 24.3984V29.5068C39.0796 29.7262 39.2587 29.9053 39.478 29.9053H44.5864C44.6421 29.9053 44.6955 29.8938 44.7437 29.873C44.8862 29.8125 44.9858 29.6714 44.9858 29.5068V24.3984C44.9858 24.1787 44.8081 24.0001 44.5884 24H39.478C39.4732 24 39.4682 24.0008 39.4634 24.001Z" fill="#ECEBE4"></path>
</svg>