<svg viewBox="0 0 24 24" fill="none" xmlns="http://www.w3.org/2000/svg" stroke="#000" stroke-width="2" stroke-linecap="round" stroke-linejoin="round">
<path d="M11.9545 20.5455L10.0693 18.8362C9.06608 17.9266 7.87234 17.2526 6.57528 16.8635L4 16.0909V3.6099C4 3.29438 4.28866 3.05773 4.59806 3.11961L6.30057 3.46011C7.77416 3.75483 9.1517 4.41025 10.3099 5.36774L11.9545 6.72727M11.9545 20.5455L14.2702 18.6251C15.2019 17.8525 16.2785 17.2737 17.4368 16.9227L20.1818 16.0909V3.61111C20.1818 3.29519 19.8925 3.05845 19.5828 3.12101L17.7122 3.49892C16.3757 3.76891 15.1171 4.33605 14.0296 5.15836L11.9545 6.72727M11.9545 20.5455V6.72727M20.2333 6.42507L22.4889 6.37499C22.7693 6.36876 23 6.59438 23 6.87486V18.5202C23 18.7842 22.7947 19.0027 22.5312 19.0192L17.883 19.31C17.2059 19.3524 16.5356 19.4704 15.8848 19.6619L11.9545 20.8182L8.4055 19.706C7.70122 19.4853 6.97268 19.3512 6.23598 19.3066L1.46981 19.0183C1.20587 19.0024 1 18.7836 1 18.5192V6.87374C1 6.59369 1.23 6.36824 1.51001 6.37384L3.99853 6.42365" stroke-linecap="round" stroke-linejoin="round"></path>
</svg>