<svg viewBox="0 0 24 24" fill="none" xmlns="http://www.w3.org/2000/svg">
<path fill-rule="evenodd" clip-rule="evenodd" d="M16.5455 2.90909C16.5455 2.40701 16.1385 2 15.6365 2C15.1344 2 14.7274 2.40701 14.7274 2.90909V3.81818H9.27282V2.90909C9.27282 2.40701 8.8658 2 8.36373 2C7.86165 2 7.45464 2.40701 7.45464 2.90909V3.81966C7.02239 3.82263 6.64462 3.83156 6.31661 3.85836C5.80561 3.90011 5.33588 3.98971 4.89467 4.21452C4.21044 4.56315 3.65415 5.11945 3.30552 5.80367C3.08071 6.24489 2.99111 6.71462 2.94936 7.22561C2.90916 7.7176 2.90917 8.32157 2.90918 9.05335V16.7648C2.90917 17.4966 2.90916 18.1006 2.94936 18.5926C2.99111 19.1036 3.08071 19.5733 3.30552 20.0145C3.65415 20.6987 4.21044 21.255 4.89467 21.6037C5.33588 21.8285 5.80561 21.9181 6.31661 21.9598C6.8086 22 7.41256 22 8.14434 22H15.8558C16.5876 22 17.1916 22 17.6836 21.9598C18.1946 21.9181 18.6643 21.8285 19.1055 21.6037C19.7897 21.255 20.346 20.6987 20.6947 20.0145C20.9195 19.5733 21.0091 19.1036 21.0508 18.5926C21.091 18.1006 21.091 17.4966 21.091 16.7648V9.05334C21.091 8.32156 21.091 7.7176 21.0508 7.22561C21.0091 6.71462 20.9195 6.24489 20.6947 5.80367C20.346 5.11945 19.7897 4.56315 19.1055 4.21452C18.6643 3.98971 18.1946 3.90011 17.6836 3.85836C17.3556 3.83156 16.9778 3.82263 16.5455 3.81966V2.90909ZM7.45464 6.54545V5.63797C7.04961 5.64081 6.73157 5.6487 6.46467 5.6705C6.06611 5.70307 5.86229 5.76209 5.72011 5.83453C5.37799 6.00885 5.09985 6.287 4.92553 6.62911C4.85309 6.77129 4.79406 6.97511 4.7615 7.37367C4.72807 7.78284 4.72736 8.3122 4.72736 9.09091V9.27273H19.2728V9.09091C19.2728 8.3122 19.2721 7.78284 19.2387 7.37367C19.2061 6.97511 19.1471 6.77129 19.0746 6.62911C18.9003 6.287 18.6222 6.00885 18.2801 5.83453C18.1379 5.76209 17.9341 5.70307 17.5355 5.6705C17.2686 5.6487 16.9506 5.64081 16.5455 5.63797V6.54545C16.5455 7.04753 16.1385 7.45455 15.6365 7.45455C15.1344 7.45455 14.7274 7.04753 14.7274 6.54545V5.63636H9.27282V6.54545C9.27282 7.04753 8.8658 7.45455 8.36373 7.45455C7.86165 7.45455 7.45464 7.04753 7.45464 6.54545ZM15.8247 14.0065C16.1798 13.6514 16.1798 13.0758 15.8247 12.7208C15.4697 12.3658 14.8941 12.3658 14.5391 12.7208L11.091 16.1689L9.91564 14.9935C9.56062 14.6385 8.98501 14.6385 8.62999 14.9935C8.27497 15.3486 8.27497 15.9242 8.62999 16.2792L10.4482 18.0974C10.8032 18.4524 11.3788 18.4524 11.7338 18.0974L15.8247 14.0065Z" fill="#000"></path>
</svg>