<svg viewBox="0 0 24 24" fill="none" xmlns="http://www.w3.org/2000/svg" stroke="#000" stroke-width="2" stroke-linecap="round" stroke-linejoin="round">
<path d="M7.92227 7.29341L3.50239 19.4004C3.26021 20.0637 3.90268 20.7087 4.56679 20.4682L16.6746 16.0957C17.2472 15.8893 17.4112 15.1578 16.9826 14.7267L9.29458 6.99215C8.86516 6.5594 8.13198 6.72085 7.92227 7.29341Z" stroke="#000" stroke-linecap="round" stroke-linejoin="round"></path>
<path d="M6.74512 10.5146L13.3903 17.2814" stroke="#000" stroke-linecap="round" stroke-linejoin="round"></path>
<path d="M5.0752 15.0586L8.90171 18.8851" stroke="#000" stroke-linecap="round" stroke-linejoin="round"></path>
<path d="M17.9373 3.31561C17.9845 4.134 17.4268 4.86401 16.6252 5.03484L16.5241 5.05604C15.701 5.23086 15.1391 5.99409 15.2159 6.83205" stroke="#000" stroke-linecap="round" stroke-linejoin="round"></path>
<path d="M12 3V5.25696" stroke="#000" stroke-linecap="round" stroke-linejoin="round"></path>
<path d="M18.3701 8.25149L20.568 7.5" stroke="#000" stroke-linecap="round" stroke-linejoin="round"></path>
<path d="M19.4564 12.4564L18 11" stroke="#000" stroke-linecap="round" stroke-linejoin="round"></path>
</svg>