<svg viewBox="0 0 25 25" fill="none" xmlns="http://www.w3.org/2000/svg" stroke="#000" stroke-width="2" stroke-linecap="round" stroke-linejoin="round">
<path fill-rule="evenodd" clip-rule="evenodd" d="M5.5 1.5C3.84315 1.5 2.5 2.84315 2.5 4.5V17.5C2.5 19.1569 3.84315 20.5 5.5 20.5H5.598L8.63646 23.4143C9.02918 23.791 9.651 23.7845 10.0358 23.3998L12.5107 20.9248L14.9857 23.3998C15.3714 23.7855 15.995 23.791 16.3874 23.4121L19.4039 20.5H19.5C21.1569 20.5 22.5 19.1569 22.5 17.5V4.5C22.5 2.84315 21.1569 1.5 19.5 1.5H5.5ZM16.375 18.2892C15.926 19.0476 15.2608 19.6628 14.4642 20.0498L15.7052 21.2908L17.5732 19.4874L16.375 18.2892ZM12.507 18.4999L12.5144 18.4999L12.5246 18.4999C13.894 18.4867 15 17.3725 15 16C15 14.6193 13.8807 13.5 12.5 13.5C11.1193 13.5 10 14.6193 10 16C10 17.3769 11.1132 18.4939 12.4887 18.5L12.506 18.4999L12.507 18.4999ZM9.31408 21.293L10.5503 20.0568C9.74726 19.6702 9.07667 19.0522 8.62497 18.2892L7.42912 19.4851L9.31408 21.293ZM8.5 6.5C8.5 5.94772 8.94772 5.5 9.5 5.5H15.5C16.0523 5.5 16.5 5.94772 16.5 6.5C16.5 7.05228 16.0523 7.5 15.5 7.5H9.5C8.94772 7.5 8.5 7.05228 8.5 6.5ZM7.5 9C6.94772 9 6.5 9.44772 6.5 10C6.5 10.5523 6.94772 11 7.5 11H17.5C18.0523 11 18.5 10.5523 18.5 10C18.5 9.44772 18.0523 9 17.5 9H7.5Z" fill="#ECEBE4"></path>
</svg>