<svg viewBox="0 0 16 16" fill="none" xmlns="http://www.w3.org/2000/svg" stroke="#000" stroke-width="2" stroke-linecap="round" stroke-linejoin="round">
<g id="flame 2">
<g id="Group">
<path id="Union" fill-rule="evenodd" clip-rule="evenodd" d="M8.23938 1.05328C8.49005 0.834616 8.86427 0.834616 9.11494 1.05328C9.32383 1.23462 14.2323 5.55728 14.2332 9.54039C14.2332 12.6115 11.7407 15.1111 8.67761 15.1111C5.61449 15.1111 3.12205 12.6124 3.12205 9.54039C3.12205 9.46368 3.12387 9.38683 3.12744 9.30989L2.77999 4.44549C2.73012 3.74737 3.39441 3.2153 4.06479 3.41642L5.59846 3.87652C6.85293 2.27274 8.13483 1.14449 8.23938 1.05328ZM6.2216 11.3164C6.2216 12.6737 7.32294 13.7777 8.67672 13.7777H8.67761C10.0314 13.7777 11.1327 12.6728 11.1327 11.3164C11.1327 9.69684 9.32116 8.07195 9.11494 7.89239C8.86427 7.67373 8.49005 7.67373 8.23938 7.89239C8.03227 8.07195 6.2216 9.69684 6.2216 11.3164Z"></path>
</g>
</g>
</svg>