<svg viewBox="0 0 20 20" fill="none" xmlns="http://www.w3.org/2000/svg">
<path d="M1.77809 6.81786C1.52815 6.63933 1.40318 6.55007 1.29423 6.53848C1.13129 6.52114 0.967991 6.60518 0.887388 6.74784C0.833489 6.84324 0.833492 6.99513 0.833496 7.29891V12.7011C0.833486 13.3719 0.833478 13.9255 0.870325 14.3765C0.908596 14.8449 0.990733 15.2755 1.19681 15.68C1.51639 16.3072 2.02632 16.8171 2.65353 17.1367C3.05798 17.3428 3.48856 17.4249 3.95698 17.4632C4.40797 17.5 4.96159 17.5 5.63239 17.5H14.3679C15.0387 17.5 15.5924 17.5 16.0434 17.4632C16.5118 17.4249 16.9424 17.3428 17.3468 17.1367C17.974 16.8171 18.4839 16.3072 18.8035 15.68C19.0096 15.2755 19.0917 14.8449 19.13 14.3765C19.1668 13.9255 19.1668 13.3719 19.1668 12.7011V7.2989C19.1668 7.15001 19.1668 7.07557 19.1532 7.02358C19.0915 6.78856 18.836 6.65468 18.6077 6.73776C18.5572 6.75614 18.4952 6.79905 18.3712 6.88487L11.9195 11.3516C11.462 11.6693 11.0604 11.9482 10.6041 12.0588C10.205 12.1556 9.78819 12.1525 9.39055 12.0499C8.93593 11.9326 8.53843 11.6478 8.0857 11.3234L1.77809 6.81786Z" fill="#000"></path>
<path d="M18.4442 4.80727C18.598 4.70077 18.6749 4.64752 18.7222 4.56187C18.7589 4.49536 18.7798 4.39003 18.7714 4.31454C18.7606 4.21733 18.7193 4.15314 18.6367 4.02478C18.3201 3.53304 17.8646 3.12713 17.3468 2.86331C16.9424 2.65724 16.5118 2.5751 16.0434 2.53683C15.5924 2.49998 15.0387 2.49999 14.3679 2.5H5.63241C4.96161 2.49999 4.40797 2.49998 3.95698 2.53683C3.48856 2.5751 3.05798 2.65724 2.65353 2.86331C2.18767 3.10068 1.785 3.44384 1.4788 3.86112C1.38247 3.99241 1.3343 4.05805 1.31843 4.15767C1.30602 4.23558 1.32335 4.34381 1.35946 4.41395C1.40564 4.50364 1.48574 4.56085 1.64593 4.67527L8.95853 9.89856C9.56454 10.3314 9.69314 10.4067 9.80695 10.4361C9.93949 10.4703 10.0784 10.4713 10.2115 10.4391C10.3257 10.4114 10.4554 10.338 11.0677 9.91406L18.4442 4.80727Z" fill="#000"></path>
</svg>