<svg viewBox="0 0 20 21" fill="none" xmlns="http://www.w3.org/2000/svg" stroke="#000" stroke-width="2" stroke-linecap="round" stroke-linejoin="round">
<path d="M4.1665 4.65803C4.1665 3.84873 4.1665 3.44407 4.33525 3.22101C4.48225 3.02669 4.70694 2.90644 4.95017 2.89192C5.22937 2.87525 5.56606 3.09971 6.23944 3.54863L15.0024 9.39061C15.5588 9.76154 15.837 9.94701 15.934 10.1808C16.0187 10.3852 16.0187 10.6149 15.934 10.8192C15.837 11.053 15.5588 11.2385 15.0024 11.6094L6.23944 17.4514C5.56606 17.9003 5.22937 18.1248 4.95017 18.1081C4.70694 18.0936 4.48225 17.9733 4.33525 17.779C4.1665 17.5559 4.1665 17.1513 4.1665 16.342V4.65803Z" stroke="current" stroke-linecap="round" stroke-linejoin="round"></path>
</svg>