<svg viewBox="0 0 20 20" fill="none" xmlns="http://www.w3.org/2000/svg">
<path d="M18.4384 10.5555C18.611 10.2063 18.611 9.7966 18.4384 9.44744C18.2863 9.13998 18.0196 8.97877 17.8814 8.90101C17.7326 8.81728 17.5419 8.7315 17.3518 8.64598L3.36527 2.35209C3.17075 2.26452 2.97682 2.17721 2.81322 2.12054C2.66303 2.06852 2.36064 1.97346 2.02584 2.06662C1.64749 2.17189 1.34061 2.44886 1.19722 2.81446C1.07033 3.13799 1.13398 3.44852 1.17039 3.60324C1.21004 3.77179 1.27708 3.97365 1.34433 4.17613L2.69806 8.25473C2.80706 8.58313 2.86156 8.74733 2.9629 8.86874C3.0524 8.97595 3.1674 9.05895 3.29734 9.11011C3.44449 9.16805 3.6175 9.16805 3.96351 9.16805H9.99993C10.4602 9.16805 10.8333 9.54115 10.8333 10.0014C10.8333 10.4616 10.4602 10.8347 9.99993 10.8347H3.97927C3.63413 10.8347 3.46156 10.8347 3.31467 10.8924C3.18496 10.9434 3.0701 11.0261 2.9806 11.1329C2.87925 11.2539 2.82447 11.4175 2.7149 11.7448L1.35027 15.8211C1.2823 16.024 1.2146 16.2261 1.17443 16.3949C1.13761 16.5496 1.07289 16.8606 1.19943 17.185C1.34233 17.5513 1.64924 17.829 2.02794 17.9347C2.3633 18.0283 2.66638 17.9329 2.81662 17.8808C2.98054 17.824 3.17495 17.7365 3.37011 17.6487L17.3517 11.3569C17.5419 11.2714 17.7326 11.1856 17.8814 11.1019C18.0196 11.0241 18.2864 10.8629 18.4384 10.5555Z" fill="#000"></path>
</svg>